HIERARCHY
ROOT root
{
	OFFSET 0.000000 0.000000 0.000000
	CHANNELS 6 Xposition Yposition Zposition Zrotation Yrotation Xrotation
	JOINT lhip
	{
		OFFSET 0.058581 -0.082280 -0.017664
		CHANNELS 3 Zrotation Yrotation Xrotation
		JOINT lknee
		{
			OFFSET 0.043451 -0.386469 0.008037
			CHANNELS 3 Zrotation Yrotation Xrotation
			JOINT lankle
			{
				OFFSET -0.014790 -0.426874 -0.037428
				CHANNELS 3 Zrotation Yrotation Xrotation
				JOINT ltoe
				{
					OFFSET 0.041054 -0.060286 0.122042
					CHANNELS 3 Zrotation Yrotation Xrotation
					End Site
					{
						OFFSET 0.000000 0.000000 0.000000
					}
				}
			}
		}
	}
	JOINT rhip
	{
		OFFSET -0.060310 -0.090513 -0.013543
		CHANNELS 3 Zrotation Yrotation Xrotation
		JOINT rknee
		{
			OFFSET -0.043257 -0.383688 -0.004843
			CHANNELS 3 Zrotation Yrotation Xrotation
			JOINT rankle
			{
				OFFSET 0.019056 -0.420046 -0.034562
				CHANNELS 3 Zrotation Yrotation Xrotation
				JOINT rtoe
				{
					OFFSET -0.034840 -0.062106 0.130323
					CHANNELS 3 Zrotation Yrotation Xrotation
					End Site
					{
						OFFSET 0.000000 0.000000 0.000000
					}
				}
			}
		}
	}
	JOINT lowerback
	{
		OFFSET 0.004439 0.124404 -0.038385
		CHANNELS 3 Zrotation Yrotation Xrotation
		JOINT upperback
		{
			OFFSET 0.004488 0.137956 0.026820
			CHANNELS 3 Zrotation Yrotation Xrotation
			JOINT chest
			{
				OFFSET -0.002265 0.056032 0.002855
				CHANNELS 3 Zrotation Yrotation Xrotation
				JOINT lowerneck
				{
					OFFSET -0.013390 0.211636 -0.033468
					CHANNELS 3 Zrotation Yrotation Xrotation
					JOINT upperneck
					{
						OFFSET 0.010113 0.088937 0.050410
						CHANNELS 3 Zrotation Yrotation Xrotation
						End Site
						{
							OFFSET 0.000000 0.000000 0.000000
						}
					}
				}
				JOINT lclavicle
				{
					OFFSET 0.071702 0.114000 -0.018898
					CHANNELS 3 Zrotation Yrotation Xrotation
					JOINT lshoulder
					{
						OFFSET 0.122921 0.045205 -0.019046
						CHANNELS 3 Zrotation Yrotation Xrotation
						JOINT lelbow
						{
							OFFSET 0.255332 -0.015649 -0.022946
							CHANNELS 3 Zrotation Yrotation Xrotation
							JOINT lwrist
							{
								OFFSET 0.265709 0.012698 -0.007375
								CHANNELS 3 Zrotation Yrotation Xrotation
								End Site
								{
									OFFSET 0.000000 0.000000 0.000000
								}
							}
						}
					}
				}
				JOINT rclavicle
				{
					OFFSET -0.082954 0.112472 -0.023707
					CHANNELS 3 Zrotation Yrotation Xrotation
					JOINT rshoulder
					{
						OFFSET -0.113228 0.046853 -0.008472
						CHANNELS 3 Zrotation Yrotation Xrotation
						JOINT relbow
						{
							OFFSET -0.260127 -0.014369 -0.031269
							CHANNELS 3 Zrotation Yrotation Xrotation
							JOINT rwrist
							{
								OFFSET -0.269108 0.006794 -0.006027
								CHANNELS 3 Zrotation Yrotation Xrotation
								End Site
								{
									OFFSET 0.000000 0.000000 0.000000
								}
							}
						}
					}
				}
			}
		}
	}
}
MOTION
Frames: 16
Frame Time: 0.033333
0.614386 0.232607 0.985788 80.649966 2.142017 90.348396 6.365906 4.256684 4.790306 -3.534039 -4.667845 3.069335 3.354403 9.992178 -13.421147 0.000000 -0.000000 0.000000 -4.929722 -3.292025 -6.379292 2.059070 -2.871146 15.474505 5.267976 -4.942489 -8.491715 0.000000 -0.000000 0.000000 -2.284721 -1.271065 2.889646 3.758212 -4.633912 -1.071450 0.743674 -4.471731 2.489876 7.642368 -13.335573 10.126126 2.735468 -18.267826 13.562046 -25.953116 9.449835 1.192204 -60.272236 -10.821047 8.557089 10.308844 -30.177464 4.430817 -2.482880 -0.766856 -3.113612 28.480591 -6.306648 -2.344301 57.694246 4.717916 11.154027 -15.871711 24.830132 -9.212106 5.455211 2.585811 -5.142738 
0.615941 0.231307 0.985921 80.879929 2.137387 90.494638 6.444831 4.384017 4.779998 -3.623366 -4.859413 2.898304 3.376886 9.918982 -13.527774 0.000000 -0.000000 0.000000 -4.903683 -3.294196 -6.301325 2.020875 -3.087465 15.300366 5.361931 -4.946883 -8.459333 0.000000 -0.000000 0.000000 -2.259334 -1.229497 3.565043 3.811523 -4.600673 -2.114484 0.874210 -4.264821 1.891275 7.098751 -14.011645 8.528412 3.044390 -19.170143 12.100273 -25.501346 9.234117 1.397918 -60.804488 -10.223941 8.812440 9.795275 -29.218673 5.567378 -2.619915 -0.778411 -3.043197 27.355505 -6.569321 -3.841996 58.446696 2.698137 10.854057 -15.559589 23.928062 -8.116458 5.431872 2.026026 -5.835191 
0.616914 0.230627 0.986161 81.074268 2.036985 90.641195 6.308140 4.355769 4.744857 -3.511724 -4.909246 2.713886 3.036051 9.768121 -13.474243 0.000000 -0.000000 0.000000 -5.014949 -3.259539 -6.348833 2.008476 -3.196554 15.208746 5.409577 -4.971101 -8.424554 0.000000 -0.000000 0.000000 -2.007434 -1.190147 3.406712 3.553765 -4.450161 -2.230654 0.477929 -4.240439 2.012085 7.175808 -14.459392 6.515176 3.368098 -20.002567 10.587392 -25.267671 9.075980 1.192938 -60.879470 -10.078764 9.088379 9.444743 -28.589554 6.105032 -2.670273 -0.849240 -2.674076 27.364207 -6.769903 -4.379171 58.718818 2.377269 10.681517 -15.514226 22.454641 -8.216339 5.343812 2.113919 -5.954070 
0.616660 0.229718 0.986617 81.101746 1.948996 91.067891 6.171731 4.267346 4.245362 -3.493472 -4.849246 2.809205 3.080100 9.734487 -13.354339 0.000000 -0.000000 0.000000 -4.972615 -3.498391 -6.940585 1.959694 -2.950170 15.315837 5.386320 -5.153697 -8.333381 0.000000 -0.000000 0.000000 -1.891588 -0.976550 3.360869 3.342194 -4.376411 -2.509330 0.265142 -4.333775 1.767780 7.291863 -14.625498 4.681184 4.333226 -20.242222 8.364148 -25.136953 8.937933 1.335254 -60.865275 -9.808233 9.126632 8.979603 -28.233652 6.986346 -2.924114 -1.034423 -2.751274 27.255066 -6.604077 -4.871802 59.019654 1.852796 10.411780 -15.378526 20.849093 -7.916099 5.453911 1.605373 -5.883747 
0.617428 0.229880 0.986913 81.511588 1.920849 91.063394 6.109730 4.056134 4.242888 -3.436321 -5.059231 2.772462 2.977172 9.754403 -13.437740 0.000000 -0.000000 0.000000 -5.021494 -2.998793 -6.607391 1.975341 -3.254295 14.978823 5.372629 -5.658234 -8.325512 0.000000 -0.000000 0.000000 -1.659622 -1.199122 3.550864 3.114301 -4.317586 -2.672882 0.093376 -4.285324 1.752377 7.306692 -14.743676 3.479945 4.372820 -20.685599 7.757720 -25.240489 8.977839 1.098579 -60.906923 -9.677325 9.300938 8.797371 -28.066643 7.362017 -3.164773 -1.070558 -2.721533 27.304062 -6.332175 -4.863828 59.111747 1.812560 10.368215 -15.250118 19.688064 -8.039404 5.350911 1.553789 -5.881086 
0.618282 0.230138 0.986989 81.596426 1.875229 91.152037 6.001378 3.831731 4.279293 -3.401872 -5.003619 2.609083 2.900363 9.815320 -13.407701 0.000000 -0.000000 0.000000 -5.047563 -2.924949 -6.595924 1.945566 -3.199234 14.891656 5.335984 -5.865515 -8.382301 0.000000 -0.000000 0.000000 -1.466495 -1.185607 3.406819 2.915665 -4.215417 -2.646686 -0.057404 -4.203436 1.813561 7.287949 -14.837949 1.778442 4.097926 -21.009180 7.301671 -25.472401 8.820583 0.993595 -60.817367 -9.467335 9.531351 8.685257 -28.026718 7.455169 -3.131611 -1.370432 -2.797175 27.160277 -5.794024 -4.603856 59.342802 1.688015 10.487445 -15.297342 18.781752 -7.915043 5.317567 1.229482 -5.743735 
0.619698 0.230948 0.987134 81.815456 1.788489 91.279928 5.857508 4.034693 4.265489 -3.338654 -5.282690 2.515308 2.959745 9.660079 -13.340076 0.000000 -0.000000 0.000000 -5.155715 -3.143352 -6.615079 1.850098 -3.191002 14.918734 5.322521 -5.852937 -8.454074 0.000000 -0.000000 0.000000 -1.302378 -1.198168 3.597507 2.687729 -4.021431 -2.913207 -0.158317 -3.829820 1.478314 7.409398 -15.184807 0.480324 4.464935 -21.190209 6.537416 -25.811866 9.012372 0.768483 -60.780922 -9.036544 9.449878 8.450628 -28.385104 7.960093 -3.435235 -1.352944 -2.342150 27.190781 -6.019349 -4.973503 59.228919 0.885854 10.299333 -15.031341 18.539506 -6.967995 5.826183 1.260300 -4.461844 
0.620217 0.231447 0.987253 82.091034 1.708814 91.331168 5.781624 3.787976 4.270167 -3.427371 -5.228037 2.424648 2.948533 9.559484 -13.421273 0.000000 -0.000000 0.000000 -5.228962 -3.125489 -6.583321 1.815425 -3.252154 14.923064 5.299633 -6.036591 -8.637276 0.000000 -0.000000 0.000000 -1.066710 -1.109484 3.435002 2.429350 -3.868928 -2.803953 -0.464691 -3.799130 1.574547 7.301095 -15.063314 -0.365229 4.566021 -21.660394 6.091991 -25.852556 8.888354 0.711519 -60.827764 -9.105951 9.558096 8.418284 -28.495835 7.836663 -3.277815 -1.539560 -2.561521 27.323971 -5.499609 -4.530805 59.512974 1.082852 10.640388 -15.125318 18.095497 -6.749438 5.782660 1.127611 -4.483913 
0.620249 0.232185 0.987355 82.479707 1.687290 91.277252 5.772032 3.711763 4.249349 -3.524970 -5.348455 2.560722 2.856761 9.420502 -13.423538 0.000000 -0.000000 0.000000 -5.245792 -2.985032 -6.436233 1.671264 -3.555390 14.959471 5.221465 -6.211930 -8.700912 0.000000 -0.000000 0.000000 -0.908382 -1.016139 3.691589 2.249791 -3.664962 -2.857482 -0.506612 -3.545521 1.383759 7.183655 -15.199459 -0.700817 5.207263 -21.479440 4.961068 -26.034914 8.606836 0.714556 -60.933126 -8.931439 9.472259 8.516528 -28.956797 7.893631 -3.507614 -1.407107 -2.426040 27.272261 -5.361890 -4.304672 59.985658 0.540559 10.313235 -15.381594 19.110716 -6.698499 6.038849 1.083260 -4.659989 
0.621005 0.233106 0.987389 82.895042 1.665248 91.296664 5.791013 3.714659 4.230747 -3.662314 -5.505420 2.642673 2.813588 9.191409 -13.624165 0.000000 -0.000000 0.000000 -5.327532 -2.972709 -6.244672 1.699627 -3.743892 14.829489 5.088356 -6.538308 -8.741588 0.000000 -0.000000 0.000000 -0.686148 -1.062331 3.576312 2.094480 -3.514868 -2.856209 -0.569477 -3.616508 1.426713 6.871419 -14.790123 -0.915087 5.171345 -21.100306 4.175923 -26.175939 8.620595 0.710330 -61.048270 -8.640136 9.491173 8.465799 -29.532135 7.941871 -3.563076 -1.549160 -2.871969 26.957433 -4.542617 -3.542482 60.396504 0.788762 10.761050 -15.282268 19.648288 -6.434468 6.023692 0.914320 -4.800773 
0.621848 0.233837 0.987300 83.139974 1.597098 91.316657 5.746663 3.676881 4.234851 -3.781355 -5.531016 2.618521 2.720659 9.144978 -13.857869 0.000000 -0.000000 0.000000 -5.450347 -3.170683 -6.195215 1.661414 -3.825187 14.904757 5.098639 -6.472741 -8.712597 0.000000 -0.000000 0.000000 -0.593560 -0.808954 3.597813 1.948590 -3.300136 -2.916874 -0.690432 -3.362795 1.399304 6.694174 -14.861235 -1.121591 5.548006 -21.241786 3.588958 -26.069930 8.706914 0.667620 -61.131475 -8.519154 9.566798 8.157621 -30.233099 8.430467 -3.313402 -1.537025 -2.863294 27.012891 -4.445076 -3.737493 60.495353 0.679178 10.810138 -14.973863 20.127588 -5.993232 5.857984 1.060095 -4.604085 
0.623024 0.234778 0.987217 83.393122 1.543626 91.231501 5.664607 3.716615 4.356907 -3.790808 -5.804966 2.633155 2.657549 9.124012 -13.928293 0.000000 -0.000000 0.000000 -5.581475 -3.209986 -5.926776 1.655826 -3.838758 14.837542 5.217604 -6.577214 -8.797466 0.000000 -0.000000 0.000000 -0.524821 -0.703158 3.645143 1.812021 -3.016695 -2.868203 -0.683308 -3.013712 1.334189 6.546169 -15.037761 -1.967248 5.286331 -21.510827 3.651925 -26.047382 8.647827 0.491585 -61.138128 -8.295176 9.586916 7.794893 -30.656121 8.816535 -3.236806 -1.672007 -3.001692 27.108385 -4.520964 -3.940530 60.492851 0.644864 10.785624 -14.733615 20.946520 -5.614816 5.822428 1.191654 -4.427681 
0.623197 0.235785 0.987368 83.633330 1.520507 91.145720 5.634920 3.635784 4.317958 -3.869127 -5.703478 2.867843 2.658532 8.973640 -14.071258 0.000000 -0.000000 0.000000 -5.652207 -3.417422 -5.920253 1.557307 -4.032600 15.074651 5.194159 -6.385268 -8.931720 0.000000 -0.000000 0.000000 -0.523812 -0.413887 3.817944 1.741117 -2.857655 -2.828976 -0.574162 -2.755180 1.157321 6.309153 -14.961058 -1.798896 5.462433 -21.092184 2.916333 -26.146956 8.392609 0.624907 -61.125520 -8.074999 9.421966 7.854771 -30.977322 8.754968 -3.202516 -1.618167 -2.792482 27.130075 -4.372384 -4.202909 60.555193 0.487451 10.668647 -14.687813 21.904673 -5.297592 5.850748 1.230303 -4.156100 
0.623783 0.236336 0.987051 83.940404 1.457384 91.035990 5.566458 3.555249 4.458374 -3.879238 -5.740027 2.822218 2.780234 8.756048 -13.963117 0.000000 -0.000000 0.000000 -5.779479 -3.402644 -5.700540 1.561350 -4.181500 15.060052 4.974431 -6.576115 -8.969074 0.000000 -0.000000 0.000000 -0.410656 -0.407347 3.110423 1.670262 -2.792420 -2.350349 -0.814013 -2.959438 1.664811 6.191418 -14.237636 -2.017669 4.914552 -20.828051 2.894228 -26.184201 8.599073 0.724802 -61.013900 -8.318852 9.467689 8.360468 -31.178973 8.339712 -3.338790 -1.692804 -3.169895 27.161010 -3.244696 -3.019545 61.069308 1.899811 11.391150 -15.543442 21.867426 -6.129007 5.973682 1.241990 -4.645694 
0.624192 0.236792 0.986820 84.009160 1.434355 91.047371 5.514035 3.540629 4.453974 -3.900175 -5.756043 2.816738 2.681925 8.733541 -14.044063 0.000000 -0.000000 0.000000 -5.777058 -3.467417 -5.762786 1.444168 -4.088832 15.240214 5.076583 -6.628416 -8.976406 0.000000 -0.000000 0.000000 -0.432009 -0.212202 3.074811 1.573552 -2.510575 -2.365798 -0.686336 -2.743315 1.695251 6.483078 -12.498735 -2.617744 4.587442 -18.952790 3.528114 -26.028339 8.491673 0.615246 -60.987615 -8.184438 9.455419 8.156874 -31.064478 8.477610 -2.827679 -1.850343 -3.147213 27.252169 -3.208920 -3.058080 61.023918 2.415966 11.640235 -15.356400 22.500264 -6.004508 5.653121 1.446262 -4.705884 
0.624983 0.237331 0.987051 84.314217 1.422779 90.969297 5.470402 3.332885 4.528591 -3.887027 -5.843431 2.807379 2.709348 8.761134 -13.838902 0.000000 -0.000000 0.000000 -5.806284 -3.384124 -5.446604 1.476788 -4.088505 15.010245 5.095137 -6.892957 -9.045341 0.000000 -0.000000 0.000000 -0.367216 -0.208433 3.098081 1.471159 -2.398990 -2.389044 -0.608901 -2.693981 1.645681 6.286917 -10.820997 -3.076935 3.767087 -17.132248 4.139551 -25.987894 8.554870 0.634693 -60.885252 -7.872757 9.266252 8.306274 -30.945614 8.566885 -2.839036 -1.709633 -3.252569 27.472544 -3.026330 -3.008158 60.866654 2.967352 11.902699 -15.244020 23.056401 -5.910403 5.550376 1.513600 -4.719600 
